<svg id="Capa_1" enable-background="new 0 0 512 512" height="512" viewBox="0 0 512 512" width="512" xmlns="http://www.w3.org/2000/svg" xmlns:xlink="http://www.w3.org/1999/xlink"><linearGradient id="SVGID_1_" gradientUnits="userSpaceOnUse" x1="256" x2="256" y1="512" y2="0"><stop offset="0" stop-color="#ffc8d1"/><stop offset="1" stop-color="#fff6f7"/></linearGradient><linearGradient id="SVGID_2_" gradientUnits="userSpaceOnUse" x1="112.794" x2="373.139" y1="399.206" y2="138.861"><stop offset="0" stop-color="#ffa68d"/><stop offset="1" stop-color="#fd3a84"/></linearGradient><g><circle cx="256" cy="256" fill="url(#SVGID_1_)" r="256"/><g><g><path d="m112.794 361.524c-10.392 10.392-10.392 27.29 0 37.682 10.382 10.382 27.29 10.392 37.682 0l29.25-29.251-37.682-37.682zm178.73-185.462c-14.695 0-26.648 11.953-26.648 26.648v44.414h53.296v-44.414c.001-14.695-11.953-26.648-26.648-26.648zm0-71.062c-63.671 0-115.476 51.804-115.476 115.476 0 28.644 10.546 54.831 27.88 75.035l-9.481 9.481-6.28-6.28c-3.47-3.47-9.091-3.47-12.561 0l-21.001 21.001 37.682 37.682 21.001-21.001c3.47-3.47 3.47-9.091 0-12.561l-6.28-6.28 9.481-9.481c20.204 17.334 46.39 27.88 75.035 27.88 63.671 0 115.476-51.804 115.476-115.476s-51.804-115.476-115.476-115.476zm62.18 79.945c0 4.91-3.973 8.883-8.883 8.883h-9.782c.586 2.871.899 5.841.899 8.883v8.883h8.883c4.91 0 8.883 3.973 8.883 8.883s-3.973 8.883-8.883 8.883h-8.883v17.766h8.883c4.91 0 8.883 3.973 8.883 8.883v17.766c0 4.91-3.973 8.883-8.883 8.883s-8.883-3.973-8.883-8.883v-8.883c-2.298 0-75.581 0-79.945 0-.124 0-.204 0-.213 0h-8.669v8.883c0 4.91-3.973 8.883-8.883 8.883s-8.883-3.973-8.883-8.883v-17.766c0-4.91 3.973-8.883 8.883-8.883h8.883v-17.766h-8.883c-4.91 0-8.883-3.973-8.883-8.883s3.973-8.883 8.883-8.883h8.883v-8.883c0-3.042.313-6.011.899-8.883h-9.782c-4.91 0-8.883-3.973-8.883-8.883v-17.765c0-4.91 3.973-8.883 8.883-8.883s8.883 3.973 8.883 8.883v8.883h9.109c8.116-10.721 20.853-17.766 35.304-17.766 14.452 0 27.188 7.045 35.304 17.766h9.109v-8.883c0-4.91 3.973-8.883 8.883-8.883s8.883 3.973 8.883 8.883v17.765z" fill="url(#SVGID_2_)"/></g></g></g></svg>