<svg id="Capa_1" enable-background="new 0 0 512 512" height="512" viewBox="0 0 512 512" width="512" xmlns="http://www.w3.org/2000/svg" xmlns:xlink="http://www.w3.org/1999/xlink"><linearGradient id="SVGID_1_" gradientUnits="userSpaceOnUse" x1="282" x2="282" y1="325" y2="0"><stop offset="0" stop-color="#ffbef9"/><stop offset="1" stop-color="#fff1ff"/></linearGradient><linearGradient id="SVGID_2_" gradientUnits="userSpaceOnUse" x1="256" x2="256" y1="512" y2="0"><stop offset="0" stop-color="#a93aff"/><stop offset="1" stop-color="#ff81ff"/></linearGradient><g><g><g><path d="m196 210c8.284 0 15-6.716 15-15v-15l30-15c0-8.284-6.716-15-15-15h-30c-8.284 0-15 6.716-15 15v30c0 8.284 6.716 15 15 15zm180 0c8.284 0 15-6.716 15-15v-30c0-8.284-6.716-15-15-15h-30c-8.284 0-15 6.716-15 15l30 15v15c0 8.284 6.716 15 15 15zm-180-150h38.027c8.284 0 15-6.716 15-15s-6.716-15-15-15h-23.027v-15c0-8.284-6.716-15-15-15s-15 6.716-15 15v30c0 8.284 6.716 15 15 15zm141.973 0h38.027c8.284 0 15-6.716 15-15v-30c0-8.284-6.716-15-15-15s-15 6.716-15 15v15h-23.027c-8.284 0-15 6.716-15 15s6.716 15 15 15zm-141.973 60h30c8.284 0 15-6.716 15-15s-6.716-15-15-15h-30c-8.284 0-15 6.716-15 15s6.716 15 15 15zm180-30h-30c-8.284 0-15 6.716-15 15s6.716 15 15 15h30c8.284 0 15-6.716 15-15s-6.716-15-15-15zm90 150h-360c-8.28 0-15 6.72-15 15v15l-8 15 8 15v15l42 10h307l41-10v-60c0-8.28-6.72-15-15-15z" fill="url(#SVGID_1_)"/></g></g><g><g><path d="m361 75c0-41.601-34.046-75.4-75.739-74.996-41.29.399-74.261 34.661-74.261 75.952v104.044h150zm-270 195h-45c-8.284 0-15 6.716-15 15s6.716 15 15 15h45zm0 45c0 10.71 9.652 13.926 10.85 15l139.15 83.49v83.51c0 8.28 6.72 15 15 15h60c8.28 0 15-6.72 15-15v-83.51l139.15-83.49c1.043-.936 10.85-4.39 10.85-15z" fill="url(#SVGID_2_)"/></g></g></g></svg>