<svg id="Capa_1" enable-background="new 0 0 512 512" height="512" viewBox="0 0 512 512" width="512" xmlns="http://www.w3.org/2000/svg" xmlns:xlink="http://www.w3.org/1999/xlink"><linearGradient id="SVGID_1_" gradientUnits="userSpaceOnUse" x1="256" x2="256" y1="512" y2="0"><stop offset="0" stop-color="#ffc8d1"/><stop offset="1" stop-color="#fff6f7"/></linearGradient><linearGradient id="SVGID_2_" gradientUnits="userSpaceOnUse" x1="256" x2="256" y1="105" y2="407"><stop offset="0" stop-color="#fd3a84"/><stop offset="1" stop-color="#ffa68d"/></linearGradient><g><circle cx="256" cy="256" fill="url(#SVGID_1_)" r="256"/><g><g><path d="m309.294 193.823c-4.91 0-8.883 3.973-8.883 8.882v8.882h-9.109c-8.116-10.72-20.852-17.765-35.303-17.765s-27.187 7.045-35.303 17.765h-9.109v-8.882c0-4.91-3.973-8.882-8.883-8.882-4.909 0-8.882 3.973-8.882 8.882v17.765c0 4.91 3.973 8.882 8.882 8.882h9.781c-.585 2.871-.899 5.841-.899 8.882v8.882h-8.883c-4.909 0-8.882 3.973-8.882 8.882 0 4.91 3.973 8.882 8.882 8.882h8.883v17.765h-8.883c-4.909 0-8.882 3.973-8.882 8.882v17.765c0 4.91 3.973 8.882 8.882 8.882 4.91 0 8.883-3.973 8.883-8.882v-8.882h88.823v8.882c0 4.91 3.973 8.882 8.883 8.882 4.909 0 8.882-3.973 8.882-8.882v-17.765c0-4.91-3.973-8.882-8.882-8.882h-8.883v-17.765h8.883c4.909 0 8.882-3.973 8.882-8.882 0-4.91-3.973-8.882-8.882-8.882h-8.883v-8.882c0-3.041-.313-6.011-.899-8.882h9.781c4.909 0 8.882-3.973 8.882-8.882v-17.765c.004-4.909-3.969-8.882-8.879-8.882zm88.824 53.295h-9.332c-4.408-66.376-57.527-119.495-123.903-123.903v-9.332c0-4.91-3.973-8.882-8.882-8.882s-8.882 3.973-8.882 8.882v9.332c-66.376 4.408-119.495 57.527-123.903 123.903h-9.332c-4.91 0-8.882 3.973-8.882 8.882 0 4.91 3.973 8.882 8.882 8.882h9.332c4.408 66.376 57.527 119.495 123.903 123.903v9.332c0 4.91 3.973 8.882 8.882 8.882s8.882-3.973 8.882-8.882v-9.332c66.376-4.408 119.495-57.527 123.903-123.903h9.332c4.91 0 8.882-3.973 8.882-8.882 0-4.91-3.973-8.882-8.882-8.882zm-35.53 17.764h8.432c-4.339 56.579-49.559 101.799-106.138 106.138v-8.432c0-4.91-3.973-8.882-8.882-8.882s-8.882 3.973-8.882 8.882v8.432c-56.58-4.339-101.799-49.559-106.138-106.138h8.432c4.91 0 8.883-3.973 8.883-8.882 0-4.91-3.973-8.882-8.883-8.882h-8.432c4.339-56.579 49.559-101.799 106.138-106.138v8.432c0 4.91 3.973 8.882 8.882 8.882s8.882-3.973 8.882-8.882v-8.432c56.58 4.339 101.799 49.559 106.138 106.138h-8.432c-4.91 0-8.883 3.973-8.883 8.882.001 4.91 3.974 8.882 8.883 8.882z" fill="url(#SVGID_2_)"/></g></g></g></svg>