<svg height="496pt" viewBox="0 -3 496 496" width="496pt" xmlns="http://www.w3.org/2000/svg" xmlns:xlink="http://www.w3.org/1999/xlink"><linearGradient id="a" gradientTransform="matrix(8 0 0 -8 -8 498.536)" gradientUnits="userSpaceOnUse" x1="32" x2="32" y1="1" y2="62.317"><stop offset="0" stop-color="#9f2fff"/><stop offset="1" stop-color="#0bb1d3"/></linearGradient><path d="m166.703125 154.535156-25.230469 8.410156 5.0625 15.175782 22.761719-7.585938h23.269531c.738282 5.144532 2.210938 10.144532 4.328125 14.878906-26.925781 17.019532-44.894531 46.976563-44.894531 81.121094 0 52.9375 43.0625 96 96 96s96-43.0625 96-96c0-34.144531-17.96875-64.101562-44.894531-81.128906 2.117187-4.734375 3.589843-9.726562 4.328125-14.871094h23.269531l22.769531 7.59375 5.0625-15.175781-25.238281-8.417969h-25.296875v-16h22.703125l22.769531 7.59375 5.0625-15.175781-25.238281-8.417969h-25.296875v-16h22.703125l22.769531 7.59375 5.0625-15.175781-25.238281-8.417969h-25.296875v-16h-16v-8c0-7.71875-2.296875-14.863281-6.105469-20.984375l23.625-15.75-9.933593-29.800781-15.171876 5.0625 6.066407 18.203125-15.695313 10.460937c-6.472656-4.511718-14.3125-7.199218-22.785156-7.199218s-16.304688 2.6875-22.785156 7.199218l-15.695313-10.460937 6.066407-18.203125-15.171876-5.0625-9.933593 29.800781 23.625 15.75c-3.808594 6.121094-6.105469 13.265625-6.105469 20.984375v8h-16v16h-25.296875l-25.230469 8.410156 5.0625 15.175782 22.761719-7.585938h22.703125v16h-25.296875l-25.230469 8.410156 5.0625 15.175782 22.761719-7.585938h22.703125v16zm41.296875 8v-60.6875l32 32v37.097656c-10.144531.839844-19.855469 3.214844-28.863281 6.976563-2.023438-4.851563-3.136719-10.050781-3.136719-15.386719zm68.6875-72-28.6875 28.6875-28.6875-28.6875zm-28.6875 208c-17.648438 0-32-14.351562-32-32 0-17.648437 14.351562-32 32-32s32 14.351563 32 32c0 17.648438-14.351562 32-32 32zm0-80c-3.265625 0-6.449219.335938-9.527344.960938l-4.921875-31.585938c4.695313-.863281 9.511719-1.375 14.449219-1.375s9.753906.511719 14.441406 1.375l-4.921875 31.585938c-3.070312-.625-6.253906-.960938-9.519531-.960938zm-29.9375-26.136718 5.152344 33.105468c-6.640625 4.023438-12.214844 9.601563-16.246094 16.25l-33.105469-5.152344c8.136719-20.058593 24.144531-36.066406 44.199219-44.203124zm-50.0625 74.136718c0-4.933594.511719-9.75 1.375-14.4375l31.585938 4.917969c-.625 3.074219-.960938 6.257813-.960938 9.519531 0 3.265625.335938 6.449219.960938 9.519532l-31.585938 4.921874c-.863281-4.6875-1.375-9.503906-1.375-14.441406zm5.863281 29.9375 33.105469-5.152344c4.023438 6.640626 9.597656 12.214844 16.246094 16.246094l-5.152344 33.105469c-20.054688-8.136719-36.0625-24.144531-44.199219-44.199219zm59.695313 48.6875 4.921875-31.585937c3.070312.625 6.253906.960937 9.519531.960937s6.449219-.335937 9.527344-.960937l4.921875 31.585937c-4.695313.863282-9.511719 1.375-14.449219 1.375s-9.753906-.511718-14.441406-1.375zm44.378906-4.488281-5.152344-33.105469c6.640625-4.023437 12.214844-9.597656 16.246094-16.246094l33.105469 5.152344c-8.136719 20.054688-24.144531 36.0625-44.199219 44.199219zm50.0625-74.136719c0 4.9375-.511719 9.753906-1.375 14.441406l-31.585938-4.921874c.625-3.078126.960938-6.261719.960938-9.519532 0-3.253906-.335938-6.445312-.960938-9.519531l31.585938-4.917969c.863281 4.6875 1.375 9.503906 1.375 14.4375zm-5.863281-29.933594-33.105469 5.152344c-4.023438-6.640625-9.597656-12.21875-16.246094-16.25l5.152344-33.105468c20.054688 8.136718 36.0625 24.144531 44.199219 44.203124zm-66.136719-65.65625v-37.097656l32-32v60.6875c0 5.335938-1.113281 10.535156-3.136719 15.386719-9.007812-3.761719-18.71875-6.136719-28.863281-6.976563zm-32-104.410156c0-13.230468 10.769531-24 24-24s24 10.769532 24 24v8h-48zm232 56h-88v16h88c13.230469 0 24 10.769532 24 24v216h-464v-216c0-13.230468 10.769531-24 24-24h88v-16h-88c-22.054688 0-40 17.945313-40 40v240c0 22.058594 17.945312 40 40 40h104v32h-32v16h272v-16h-32v-32h104c22.054688 0 40-17.941406 40-40v-240c0-22.054687-17.945312-40-40-40zm-120 352h-176v-32h176zm120-48h-416c-13.230469 0-24-10.765625-24-24v-8h464v8c0 13.234375-10.769531 24-24 24zm-96-80h104v16h-104zm0-32h104v16h-104zm0-32h104v16h-104zm104-16h-104v-16h104zm-432 80h104v16h-104zm104-16h-104v-16h104zm0-32h-104v-16h104zm0-32h-104v-16h104zm0 0" fill="url(#a)"/></svg>