<svg width="90" height="110" viewBox="0 0 90 110" fill="none" xmlns="http://www.w3.org/2000/svg">
<path fill-rule="evenodd" clip-rule="evenodd" d="M10.5723 9.23764H86.1898C87.8466 9.23764 89.1898 10.5808 89.1898 12.2376V106.238C89.1898 107.895 87.8466 109.238 86.1898 109.238H7.59574V109.262L7.57546 109.238H7.57226V109.234L0.189774 100.238H5.18977L7.57226 103.233V12.2376C7.57226 10.5808 8.91541 9.23764 10.5723 9.23764Z" fill="#FF4D4D"/>
<path d="M82.1898 105.238H9.21919L3.18977 97.8293V90.421L72.729 90.421V4.23764L78.9594 4.23765L85.1898 11.8929V102.238C85.1898 103.894 83.8466 105.238 82.1898 105.238Z" fill="white"/>
<path d="M77.1898 0.23764H3.18977C1.53292 0.23764 0.189774 1.58078 0.189774 3.23764V100.238H77.1898C78.8466 100.238 80.1898 98.8945 80.1898 97.2376V3.23764C80.1898 1.58079 78.8466 0.23764 77.1898 0.23764Z" fill="#FF4D4D"/>
<path d="M46.3484 57.6586C46.3484 56.29 45.8654 55.2434 44.8993 54.5189C43.9333 53.7782 42.1944 53.0054 39.6826 52.2003C37.1708 51.3792 35.1823 50.5741 33.7171 49.7851C29.7241 47.6276 27.7275 44.7214 27.7275 41.0664C27.7275 39.1665 28.2589 37.4759 29.3215 35.9946C30.4003 34.4972 31.938 33.3298 33.9345 32.4926C35.9471 31.6553 38.2013 31.2367 40.697 31.2367C43.2087 31.2367 45.4468 31.6956 47.4111 32.6133C49.3754 33.515 50.897 34.795 51.9758 36.4534C53.0706 38.1119 53.6181 39.9957 53.6181 42.1049H46.3726C46.3726 40.4948 45.8654 39.247 44.851 38.3614C43.8367 37.4598 42.4117 37.0089 40.5762 37.0089C38.8051 37.0089 37.4284 37.3873 36.4463 38.1441C35.4641 38.8847 34.973 39.8669 34.973 41.0906C34.973 42.2337 35.5446 43.1918 36.6878 43.9646C37.8471 44.7375 39.5457 45.462 41.7838 46.1382C45.9057 47.378 48.9085 48.9157 50.7923 50.7512C52.6762 52.5867 53.6181 54.8731 53.6181 57.6103C53.6181 60.6534 52.4668 63.0444 50.1644 64.7833C47.8619 66.5061 44.7625 67.3675 40.866 67.3675C38.161 67.3675 35.6976 66.8764 33.4756 65.8943C31.2537 64.896 29.555 63.5355 28.3796 61.8127C27.2204 60.0898 26.6407 58.0933 26.6407 55.823H33.9103C33.9103 59.7034 36.2289 61.6436 40.866 61.6436C42.5888 61.6436 43.9333 61.2974 44.8993 60.6051C45.8654 59.8966 46.3484 58.9145 46.3484 57.6586Z" fill="white"/>
</svg>
