<?xml version="1.0"?>
<svg xmlns="http://www.w3.org/2000/svg" xmlns:xlink="http://www.w3.org/1999/xlink" version="1.1" id="Capa_1" x="0px" y="0px" viewBox="0 0 512 512" style="enable-background:new 0 0 512 512;" xml:space="preserve" width="512" height="512" class=""><g><path style="fill:#1273EB" d="M512,256c0,68.38-26.63,132.67-74.98,181.02c-48.31,48.31-112.54,74.94-180.86,74.98H256  c-68.38,0-132.67-26.63-181.02-74.98S0,324.38,0,256S26.63,123.33,74.98,74.98S187.62,0,256,0h0.16  c68.32,0.04,132.55,26.67,180.86,74.98C485.37,123.33,512,187.62,512,256z" data-original="#FFDBA9" class="" data-old_color="#FFDBA9"/><path style="fill:#1273EB" d="M512,256c0,68.38-26.63,132.67-74.98,181.02c-48.31,48.31-112.54,74.94-180.86,74.98V0  c68.32,0.04,132.55,26.67,180.86,74.98C485.37,123.33,512,187.62,512,256z" data-original="#FFC473" class="" data-old_color="#FFC473"/><g>
	<polygon style="fill:#FFFFFF" points="413.901,321.014 394.023,288.358 340.451,288.358 340.451,258.358 410.883,258.358    439.527,305.415  " data-original="#3C3A41" class="" data-old_color="#3C3A41"/>
	<polygon style="fill:#FFFFFF" points="390.125,366.505 375.729,345.737 332.034,345.737 332.034,315.737 391.437,315.737    414.781,349.415  " data-original="#3C3A41" class="" data-old_color="#3C3A41"/>
</g><g>
	<polygon style="fill:#FFFFFF" points="98.099,321.014 72.473,305.415 101.117,258.358 171.549,258.358 171.549,288.358    117.977,288.358  " data-original="#57555C" class="" data-old_color="#57555C"/>
	<polygon style="fill:#FFFFFF" points="121.875,366.505 97.219,349.415 120.563,315.737 179.966,315.737 179.966,345.737    136.271,345.737  " data-original="#57555C" class="" data-old_color="#57555C"/>
</g><path style="fill:#E4E4E4" d="M348.21,222.23v102.26c0,50.8-41.27,92.12-92.05,92.21H256c-50.85,0-92.21-41.36-92.21-92.21V222.23  c0-50.85,41.36-92.22,92.21-92.22h0.16C306.94,130.1,348.21,171.43,348.21,222.23z" data-original="#8B8992" class="" data-old_color="#8B8992"/><polygon style="fill:#FFFFFF" points="223.842,161.716 175.593,127.89 175.593,79.219 205.593,79.219 205.593,112.284   241.063,137.152 " data-original="#57555C" class="" data-old_color="#57555C"/><polygon style="fill:#FFFFFF" points="288.158,161.716 270.936,137.152 306.407,112.284 306.407,79.219 336.407,79.219   336.407,127.89 " data-original="#3C3A41" class="" data-old_color="#3C3A41"/><path style="fill:#E4E4E4" d="M348.21,222.23v102.26c0,50.8-41.27,92.12-92.05,92.21V130.01  C306.94,130.1,348.21,171.43,348.21,222.23z" data-original="#78777F" class="active-path" data-old_color="#78777F"/><path style="fill:#FFFFFF" d="M348.21,222.23V231H271v68.67h-30V231h-77.21v-8.77c0-50.85,41.36-92.22,92.21-92.22h0.16  C306.94,130.1,348.21,171.43,348.21,222.23z" data-original="#57555C" class="" data-old_color="#57555C"/><path style="fill:#FFFFFF" d="M348.21,222.23V231H271v68.67h-14.84V130.01C306.94,130.1,348.21,171.43,348.21,222.23z" data-original="#3C3A41" class="" data-old_color="#3C3A41"/></g> </svg>
