<?xml version="1.0"?>
<svg xmlns="http://www.w3.org/2000/svg" xmlns:xlink="http://www.w3.org/1999/xlink" version="1.1" id="Capa_1" x="0px" y="0px" viewBox="0 0 512 512" style="enable-background:new 0 0 512 512;" xml:space="preserve" width="512" height="512" class=""><g><g>
	<path style="fill:#FFFFFF" d="M512,52.966V476.69c0,19.501-15.809,35.31-35.31,35.31H35.31C15.809,512,0,496.191,0,476.69V52.966   H512z" data-original="#D1D4D1" class="" data-old_color="#D1D4D1"/>
	<path style="fill:#FFFFFF" d="M512,35.31v35.31H0V35.31C0,15.809,15.809,0,35.31,0H476.69C496.191,0,512,15.809,512,35.31z" data-original="#955BA5" class="" data-old_color="#955BA5"/>
	<path style="fill:#FF5364;" d="M52.966,26.483h-8.828c-4.875,0-8.828,3.952-8.828,8.828s3.952,8.828,8.828,8.828h8.828   c4.875,0,8.828-3.952,8.828-8.828S57.841,26.483,52.966,26.483z" data-original="#FF5364" class=""/>
	<path style="fill:#FFCC05" d="M91.63,27.189c-2.131-0.972-4.578-0.972-6.709,0c-1.069,0.448-2.055,1.075-2.913,1.854   c-3.414,3.481-3.414,9.054,0,12.535c0.859,0.779,1.844,1.406,2.913,1.854c2.137,0.941,4.572,0.941,6.709,0   c1.069-0.448,2.055-1.075,2.913-1.854c3.414-3.481,3.414-9.054,0-12.535C93.685,28.264,92.7,27.637,91.63,27.189z" data-original="#F0C419" class="" data-old_color="#F0C419"/>
	<path style="fill:#48EC68" d="M117.319,29.043c-0.779,0.859-1.406,1.844-1.854,2.913c-0.942,2.137-0.942,4.572,0,6.709   c0.448,1.069,1.075,2.055,1.854,2.913c3.481,3.414,9.054,3.414,12.535,0c0.779-0.859,1.406-1.844,1.854-2.913   c0.495-1.047,0.737-2.196,0.706-3.354c0.021-3.586-2.13-6.829-5.442-8.204C123.659,25.731,119.844,26.496,117.319,29.043z" data-original="#65DDB9" class="" data-old_color="#65DDB9"/>
	<path style="fill:#B1B1B1" d="M467.862,26.483H167.724c-4.875,0-8.828,3.952-8.828,8.828s3.952,8.828,8.828,8.828h300.138   c4.875,0,8.828-3.952,8.828-8.828S472.737,26.483,467.862,26.483z" data-original="#804169" class="" data-old_color="#804169"/>
	<g>
		<path style="fill:#f4f4f4" d="M70.621,176.552c14.626,0,26.483-11.857,26.483-26.483v-17.655    c0-14.626-11.857-26.483-26.483-26.483s-26.483,11.857-26.483,26.483v17.655C44.138,164.695,55.995,176.552,70.621,176.552z     M61.793,132.414c0-4.875,3.952-8.828,8.828-8.828s8.828,3.952,8.828,8.828v17.655c0,4.875-3.952,8.828-8.828,8.828    s-8.828-3.952-8.828-8.828V132.414z" data-original="#46B29D" class="" data-old_color="#46B29D"/>
		<path style="fill:#f4f4f4" d="M123.586,203.034c-14.626,0-26.483,11.857-26.483,26.483v17.655    c0,14.626,11.857,26.483,26.483,26.483s26.483-11.857,26.483-26.483v-17.655C150.069,214.891,138.212,203.034,123.586,203.034z     M132.414,247.172c0,4.875-3.952,8.828-8.828,8.828c-4.875,0-8.828-3.952-8.828-8.828v-17.655c0-4.875,3.952-8.828,8.828-8.828    c4.875,0,8.828,3.952,8.828,8.828V247.172z" data-original="#46B29D" class="" data-old_color="#46B29D"/>
		<path style="fill:#f4f4f4" d="M203.034,132.414c0-14.626-11.857-26.483-26.483-26.483c-14.626,0-26.483,11.857-26.483,26.483    v17.655c0,14.626,11.857,26.483,26.483,26.483c14.626,0,26.483-11.857,26.483-26.483V132.414z M185.379,150.069    c0,4.875-3.952,8.828-8.828,8.828s-8.828-3.952-8.828-8.828v-17.655c0-4.875,3.952-8.828,8.828-8.828s8.828,3.952,8.828,8.828    V150.069z" data-original="#46B29D" class="" data-old_color="#46B29D"/>
		<path style="fill:#f4f4f4" d="M397.241,176.552c14.626,0,26.483-11.857,26.483-26.483v-17.655    c0-14.626-11.857-26.483-26.483-26.483c-14.626,0-26.483,11.857-26.483,26.483v17.655    C370.759,164.695,382.615,176.552,397.241,176.552z M388.414,132.414c0-4.875,3.952-8.828,8.828-8.828    c4.875,0,8.828,3.952,8.828,8.828v17.655c0,4.875-3.952,8.828-8.828,8.828c-4.875,0-8.828-3.952-8.828-8.828V132.414z" data-original="#46B29D" class="" data-old_color="#46B29D"/>
		<path style="fill:#f4f4f4" d="M335.448,105.931c-14.626,0-26.483,11.857-26.483,26.483v17.655    c0,14.626,11.857,26.483,26.483,26.483s26.483-11.857,26.483-26.483v-17.655C361.931,117.788,350.074,105.931,335.448,105.931z     M344.276,150.069c0,4.875-3.952,8.828-8.828,8.828s-8.828-3.952-8.828-8.828v-17.655c0-4.875,3.952-8.828,8.828-8.828    s8.828,3.952,8.828,8.828V150.069z" data-original="#46B29D" class="" data-old_color="#46B29D"/>
		<path style="fill:#f4f4f4" d="M450.207,203.034c-14.626,0-26.483,11.857-26.483,26.483v17.655    c0,14.626,11.857,26.483,26.483,26.483c14.626,0,26.483-11.857,26.483-26.483v-17.655    C476.69,214.891,464.833,203.034,450.207,203.034z M459.034,247.172c0,4.875-3.952,8.828-8.828,8.828    c-4.875,0-8.828-3.952-8.828-8.828v-17.655c0-4.875,3.952-8.828,8.828-8.828c4.875,0,8.828,3.952,8.828,8.828V247.172z" data-original="#46B29D" class="" data-old_color="#46B29D"/>
		<path style="fill:#f4f4f4" d="M105.931,167.724c0,4.875,3.952,8.828,8.828,8.828h17.655c4.875,0,8.828-3.952,8.828-8.828    s-3.952-8.828-8.828-8.828v-44.138c-0.001-3.57-2.152-6.788-5.45-8.154c-3.298-1.366-7.094-0.611-9.619,1.913l-8.828,8.828    c-2.524,2.525-3.279,6.321-1.913,9.619c1.366,3.298,4.584,5.449,8.154,5.45v26.483    C109.883,158.897,105.931,162.849,105.931,167.724z" data-original="#46B29D" class="" data-old_color="#46B29D"/>
		<path style="fill:#f4f4f4" d="M97.103,326.621c0-14.626-11.857-26.483-26.483-26.483s-26.483,11.857-26.483,26.483v17.655    c0,14.626,11.857,26.483,26.483,26.483s26.483-11.857,26.483-26.483V326.621z M79.448,344.276c0,4.875-3.952,8.828-8.828,8.828    s-8.828-3.952-8.828-8.828v-17.655c0-4.875,3.952-8.828,8.828-8.828s8.828,3.952,8.828,8.828V344.276z" data-original="#46B29D" class="" data-old_color="#46B29D"/>
		<path style="fill:#f4f4f4" d="M123.586,397.241c-14.626,0-26.483,11.857-26.483,26.483v17.655    c0,14.626,11.857,26.483,26.483,26.483s26.483-11.857,26.483-26.483v-17.655C150.069,409.098,138.212,397.241,123.586,397.241z     M132.414,441.379c0,4.875-3.952,8.828-8.828,8.828c-4.875,0-8.828-3.952-8.828-8.828v-17.655c0-4.875,3.952-8.828,8.828-8.828    c4.875,0,8.828,3.952,8.828,8.828V441.379z" data-original="#46B29D" class="" data-old_color="#46B29D"/>
		<path style="fill:#f4f4f4" d="M105.931,361.931c0,4.875,3.952,8.828,8.828,8.828h17.655c4.875,0,8.828-3.952,8.828-8.828    s-3.952-8.828-8.828-8.828v-44.138c-0.001-3.57-2.152-6.788-5.45-8.154c-3.298-1.366-7.094-0.611-9.619,1.913l-8.828,8.828    c-2.524,2.525-3.279,6.321-1.913,9.619c1.366,3.298,4.584,5.449,8.154,5.45v26.483    C109.883,353.103,105.931,357.056,105.931,361.931z" data-original="#46B29D" class="" data-old_color="#46B29D"/>
		<path style="fill:#f4f4f4" d="M423.724,326.621c0-14.626-11.857-26.483-26.483-26.483c-14.626,0-26.483,11.857-26.483,26.483    v17.655c0,14.626,11.857,26.483,26.483,26.483c14.626,0,26.483-11.857,26.483-26.483V326.621z M406.069,344.276    c0,4.875-3.952,8.828-8.828,8.828c-4.875,0-8.828-3.952-8.828-8.828v-17.655c0-4.875,3.952-8.828,8.828-8.828    c4.875,0,8.828,3.952,8.828,8.828V344.276z" data-original="#46B29D" class="" data-old_color="#46B29D"/>
		<path style="fill:#f4f4f4" d="M432.552,361.931c0,4.875,3.952,8.828,8.828,8.828h17.655c4.875,0,8.828-3.952,8.828-8.828    s-3.952-8.828-8.828-8.828v-44.138c-0.001-3.57-2.152-6.788-5.45-8.154c-3.298-1.366-7.094-0.611-9.619,1.913l-8.828,8.828    c-2.524,2.525-3.279,6.321-1.913,9.619c1.366,3.298,4.584,5.449,8.154,5.45v26.483    C436.504,353.103,432.552,357.056,432.552,361.931z" data-original="#46B29D" class="" data-old_color="#46B29D"/>
		<path style="fill:#f4f4f4" d="M52.966,264.828c0,4.875,3.952,8.828,8.828,8.828h17.655c4.875,0,8.828-3.952,8.828-8.828    S84.324,256,79.448,256v-44.138c-0.001-3.57-2.152-6.788-5.45-8.154c-3.298-1.366-7.094-0.611-9.619,1.913l-8.828,8.828    c-2.524,2.525-3.279,6.321-1.913,9.619c1.366,3.298,4.584,5.449,8.154,5.45V256C56.918,256,52.966,259.952,52.966,264.828z" data-original="#46B29D" class="" data-old_color="#46B29D"/>
		<path style="fill:#f4f4f4" d="M379.586,264.828c0,4.875,3.952,8.828,8.828,8.828h17.655c4.875,0,8.828-3.952,8.828-8.828    S410.944,256,406.069,256v-44.138c-0.001-3.57-2.152-6.788-5.45-8.154c-3.298-1.366-7.094-0.611-9.619,1.913l-8.828,8.828    c-2.524,2.525-3.279,6.321-1.913,9.619c1.366,3.298,4.584,5.449,8.154,5.45V256C383.538,256,379.586,259.952,379.586,264.828z" data-original="#46B29D" class="" data-old_color="#46B29D"/>
		<path style="fill:#f4f4f4" d="M450.207,397.241c-14.626,0-26.483,11.857-26.483,26.483v17.655    c0,14.626,11.857,26.483,26.483,26.483c14.626,0,26.483-11.857,26.483-26.483v-17.655    C476.69,409.098,464.833,397.241,450.207,397.241z M459.034,441.379c0,4.875-3.952,8.828-8.828,8.828    c-4.875,0-8.828-3.952-8.828-8.828v-17.655c0-4.875,3.952-8.828,8.828-8.828c4.875,0,8.828,3.952,8.828,8.828V441.379z" data-original="#46B29D" class="" data-old_color="#46B29D"/>
		<path style="fill:#f4f4f4" d="M291.31,397.241c-14.626,0-26.483,11.857-26.483,26.483v17.655    c0,14.626,11.857,26.483,26.483,26.483s26.483-11.857,26.483-26.483v-17.655C317.793,409.098,305.936,397.241,291.31,397.241z     M300.138,441.379c0,4.875-3.952,8.828-8.828,8.828s-8.828-3.952-8.828-8.828v-17.655c0-4.875,3.952-8.828,8.828-8.828    s8.828,3.952,8.828,8.828V441.379z" data-original="#46B29D" class="" data-old_color="#46B29D"/>
		<path style="fill:#f4f4f4" d="M229.517,397.241c-14.626,0-26.483,11.857-26.483,26.483v17.655    c0,14.626,11.857,26.483,26.483,26.483S256,456.005,256,441.379v-17.655C256,409.098,244.143,397.241,229.517,397.241z     M238.345,441.379c0,4.875-3.952,8.828-8.828,8.828s-8.828-3.952-8.828-8.828v-17.655c0-4.875,3.952-8.828,8.828-8.828    s8.828,3.952,8.828,8.828V441.379z" data-original="#46B29D" class="" data-old_color="#46B29D"/>
		<path style="fill:#f4f4f4" d="M406.069,450.207v-44.138c-0.001-3.57-2.152-6.788-5.45-8.154    c-3.298-1.366-7.094-0.611-9.619,1.913l-8.828,8.828c-2.524,2.525-3.279,6.321-1.913,9.619c1.366,3.298,4.584,5.449,8.154,5.45    v26.483c-4.875,0-8.828,3.952-8.828,8.828s3.952,8.828,8.828,8.828h17.655c4.875,0,8.828-3.952,8.828-8.828    S410.944,450.207,406.069,450.207z" data-original="#46B29D" class="" data-old_color="#46B29D"/>
		<path style="fill:#f4f4f4" d="M79.448,450.207v-44.138c-0.001-3.57-2.152-6.788-5.45-8.154c-3.298-1.366-7.094-0.611-9.619,1.913    l-8.828,8.828c-2.524,2.525-3.279,6.321-1.913,9.619c1.366,3.298,4.584,5.449,8.154,5.45v26.483c-4.875,0-8.828,3.952-8.828,8.828    s3.952,8.828,8.828,8.828h17.655c4.875,0,8.828-3.952,8.828-8.828S84.324,450.207,79.448,450.207z" data-original="#46B29D" class="" data-old_color="#46B29D"/>
		<path style="fill:#f4f4f4" d="M185.379,450.207v-44.138c-0.001-3.57-2.152-6.788-5.45-8.154    c-3.298-1.366-7.094-0.611-9.619,1.913l-8.828,8.828c-2.524,2.525-3.279,6.321-1.913,9.619c1.366,3.298,4.584,5.449,8.154,5.45    v26.483c-4.875,0-8.828,3.952-8.828,8.828s3.952,8.828,8.828,8.828h17.655c4.875,0,8.828-3.952,8.828-8.828    S190.255,450.207,185.379,450.207z" data-original="#46B29D" class="" data-old_color="#46B29D"/>
		<path style="fill:#f4f4f4" d="M353.103,450.207v-44.138c-0.001-3.57-2.152-6.788-5.45-8.154    c-3.298-1.366-7.094-0.611-9.619,1.913l-8.828,8.828c-2.524,2.525-3.279,6.321-1.913,9.619c1.366,3.298,4.584,5.449,8.154,5.45    v26.483c-4.875,0-8.828,3.952-8.828,8.828s3.952,8.828,8.828,8.828h17.655c4.875,0,8.828-3.952,8.828-8.828    S357.979,450.207,353.103,450.207z" data-original="#46B29D" class="" data-old_color="#46B29D"/>
		<path style="fill:#f4f4f4" d="M432.552,167.724c0,4.875,3.952,8.828,8.828,8.828h17.655c4.875,0,8.828-3.952,8.828-8.828    s-3.952-8.828-8.828-8.828v-44.138c-0.001-3.57-2.152-6.788-5.45-8.154c-3.298-1.366-7.094-0.611-9.619,1.913l-8.828,8.828    c-2.524,2.525-3.279,6.321-1.913,9.619c1.366,3.298,4.584,5.449,8.154,5.45v26.483    C436.504,158.897,432.552,162.849,432.552,167.724z" data-original="#46B29D" class="" data-old_color="#46B29D"/>
		<path style="fill:#f4f4f4" d="M264.828,167.724c0,4.875,3.952,8.828,8.828,8.828h17.655c4.875,0,8.828-3.952,8.828-8.828    s-3.952-8.828-8.828-8.828v-44.138c-0.001-3.57-2.152-6.788-5.45-8.154c-3.298-1.366-7.094-0.611-9.619,1.913l-8.828,8.828    c-2.524,2.525-3.279,6.321-1.913,9.619c1.366,3.298,4.584,5.449,8.154,5.45v26.483    C268.78,158.897,264.828,162.849,264.828,167.724z" data-original="#46B29D" class="" data-old_color="#46B29D"/>
		<path style="fill:#f4f4f4" d="M247.172,158.897v-44.138c-0.001-3.57-2.152-6.788-5.45-8.154    c-3.298-1.366-7.094-0.611-9.619,1.913l-8.828,8.828c-2.524,2.525-3.279,6.321-1.913,9.619c1.366,3.298,4.584,5.449,8.154,5.45    v26.483c-4.875,0-8.828,3.952-8.828,8.828s3.952,8.828,8.828,8.828h17.655c4.875,0,8.828-3.952,8.828-8.828    S252.048,158.897,247.172,158.897z" data-original="#46B29D" class="" data-old_color="#46B29D"/>
	</g>
	<g>
		<path style="fill:#FED385" d="M209.276,189.025c-3.464-3.345-8.97-3.298-12.375,0.108c-3.405,3.405-3.453,8.911-0.108,12.375    l25.423,25.423c3.464,3.345,8.97,3.298,12.375-0.108c3.405-3.405,3.453-8.911,0.108-12.375L209.276,189.025z" data-original="#7D6599" class="" data-old_color="#7D6599"/>
		<path style="fill:#FED385" d="M315.207,189.025c-3.447-3.446-9.035-3.446-12.482,0l-25.423,25.423    c-2.295,2.216-3.215,5.499-2.407,8.585c0.808,3.086,3.218,5.497,6.305,6.305s6.368-0.112,8.585-2.407l25.423-25.423    C318.653,198.06,318.653,192.472,315.207,189.025z" data-original="#7D6599" class="" data-old_color="#7D6599"/>
	</g>
	<g>
		<path style="fill:#FFB229" d="M162.781,278.369l37.464,12.491c2.996,0.997,6.296,0.319,8.657-1.777    c2.361-2.096,3.424-5.293,2.79-8.386s-2.872-5.612-5.868-6.609l-37.455-12.482c-4.375-1.458-6.891-6.039-5.773-10.514    l4.864-19.421c1.145-4.714-1.728-9.468-6.433-10.647c-4.705-1.179-9.48,1.66-10.693,6.357l-4.864,19.421    C142.159,260.224,149.683,273.944,162.781,278.369z" data-original="#3D324C" class="active-path" data-old_color="#3D324C"/>
		<path style="fill:#FFB229" d="M200.245,344.726l-37.455,12.491c-13.092,4.421-20.619,18.131-17.32,31.55l4.864,19.421    c0.974,3.938,4.506,6.706,8.563,6.709c0.726,0.003,1.45-0.086,2.154-0.265c4.729-1.185,7.602-5.979,6.418-10.708l-4.864-19.421    c-1.123-4.477,1.394-9.064,5.773-10.522l37.455-12.482c4.632-1.541,7.137-6.544,5.597-11.176    c-1.541-4.632-6.544-7.137-11.176-5.597H200.245z" data-original="#3D324C" class="active-path" data-old_color="#3D324C"/>
		<path style="fill:#FFB229" d="M203.034,308.966h-26.483c-4.875,0-8.828,3.952-8.828,8.828s3.952,8.828,8.828,8.828h26.483    c4.875,0,8.828-3.952,8.828-8.828S207.91,308.966,203.034,308.966z" data-original="#3D324C" class="active-path" data-old_color="#3D324C"/>
		<path style="fill:#FFB229" d="M308.966,291.31c0.948,0.001,1.89-0.151,2.79-0.45l37.455-12.491    c13.092-4.421,20.619-18.131,17.32-31.55l-4.864-19.421c-0.748-3.079-3.089-5.521-6.134-6.399    c-3.045-0.877-6.327-0.055-8.598,2.154c-2.272,2.209-3.185,5.467-2.393,8.535l4.864,19.421c1.123,4.477-1.394,9.064-5.773,10.522    l-37.455,12.482c-4.097,1.376-6.596,5.516-5.904,9.782C300.964,288.163,304.643,291.301,308.966,291.31z" data-original="#3D324C" class="active-path" data-old_color="#3D324C"/>
		<path style="fill:#FFB229" d="M349.219,357.217l-37.464-12.491c-2.996-0.997-6.296-0.319-8.657,1.777    c-2.361,2.096-3.424,5.293-2.79,8.386c0.635,3.093,2.872,5.612,5.868,6.609l37.455,12.482c4.375,1.458,6.891,6.039,5.773,10.514    l-4.864,19.421c-1.185,4.729,1.689,9.523,6.418,10.708c0.701,0.181,1.421,0.273,2.145,0.274c4.046-0.004,7.571-2.758,8.554-6.682    l4.864-19.421C369.838,375.371,362.317,361.646,349.219,357.217z" data-original="#3D324C" class="active-path" data-old_color="#3D324C"/>
		<path style="fill:#FFB229" d="M308.966,326.621h26.483c4.875,0,8.828-3.952,8.828-8.828s-3.952-8.828-8.828-8.828h-26.483    c-4.875,0-8.828,3.952-8.828,8.828S304.09,326.621,308.966,326.621z" data-original="#3D324C" class="active-path" data-old_color="#3D324C"/>
	</g>
	<path style="fill:#FED385" d="M308.966,256v88.276c0.01,25.839-18.655,47.901-44.138,52.171c-5.837,1.059-11.818,1.059-17.655,0   c-25.483-4.27-44.148-26.332-44.138-52.171V256H308.966z" data-original="#7D6599" class="" data-old_color="#7D6599"/>
	<g>
		<path style="fill:#FFB229" d="M308.966,256H203.034c0-29.252,23.713-52.966,52.966-52.966    C285.234,203.078,308.922,226.766,308.966,256z" data-original="#3D324C" class="active-path" data-old_color="#3D324C"/>
		<path style="fill:#FFB229" d="M264.828,308.966v87.481c-5.837,1.059-11.818,1.059-17.655,0v-87.481    c0-4.875,3.952-8.828,8.828-8.828S264.828,304.09,264.828,308.966z" data-original="#3D324C" class="active-path" data-old_color="#3D324C"/>
	</g>
</g></g> </svg>
